<?xml version="1.0" encoding="utf-8"?>
<!-- Generator: Adobe Illustrator 17.0.0, SVG Export Plug-In . SVG Version: 6.00 Build 0)  -->
<!DOCTYPE svg PUBLIC "-//W3C//DTD SVG 1.1//EN" "http://www.w3.org/Graphics/SVG/1.1/DTD/svg11.dtd">
<svg version="1.1" xmlns="http://www.w3.org/2000/svg" xmlns:xlink="http://www.w3.org/1999/xlink" x="0px" y="0px" width="500px"
	 height="500px" viewBox="0 0 500 500" enable-background="new 0 0 500 500" xml:space="preserve">
<g id="Layer_2">
	<rect x="85.167" y="85.167" fill="#FFFFFF" width="318.333" height="330"/>
</g>
<g id="Layer_1">
	<g>
		<path fill="#282828" d="M324.511,133.024H175.489c-23.786,0-43.138,19.352-43.138,43.138v149.023
			c0,23.786,19.352,43.144,43.138,43.144h149.023c23.786,0,43.144-19.352,43.144-43.144V176.163
			C367.655,152.376,348.303,133.024,324.511,133.024z M250,328.138c-42.709,0-77.458-34.749-77.458-77.464
			c0-42.709,34.749-77.458,77.458-77.458c42.715,0,77.464,34.749,77.464,77.458S292.709,328.138,250,328.138z M329.954,189.231
			c-10.111,0-18.333-8.222-18.333-18.327s8.222-18.327,18.333-18.327c10.105,0,18.327,8.222,18.327,18.327
			S340.059,189.231,329.954,189.231z"/>
		<path fill="#282828" d="M250,205.948c-24.655,0-44.731,20.065-44.731,44.72c0,24.666,20.076,44.737,44.731,44.737
			c24.666,0,44.726-20.071,44.726-44.737C294.726,226.019,274.661,205.948,250,205.948z"/>
		<path fill="#FFFFFF" d="M250,0C111.934,0,0,111.934,0,250s111.934,250,250,250s250-111.934,250-250S388.066,0,250,0z
			 M400.382,325.185c0,41.84-34.03,75.871-75.871,75.871H175.489c-41.835,0-75.871-34.03-75.871-75.871V176.163
			c0-41.835,34.036-75.871,75.871-75.871h149.023c41.84,0,75.871,34.036,75.871,75.871V325.185z"/>
	</g>
</g>
</svg>
